<svg id="レイヤー_1" data-name="レイヤー 1" xmlns="http://www.w3.org/2000/svg" viewBox="0 0 325.44 481.91"><defs><style>.cls-1{fill:#de0124;}.cls-2{fill:#f7f101;}.cls-3{fill:#040404;}.cls-4{fill:#050505;}.cls-5{fill:#030303;}.cls-6{fill:#df0e26;}</style></defs><title>aedMarck</title><path class="cls-1" d="M435.21,230c23.11,21.65,32.2,62.35,20.55,91.88-3.92,9.94-11.88,16.75-18.85,24.29Q384.86,402.47,332.6,458.55a79.55,79.55,0,0,1-9.17,8.4c-14.31,11.2-25,8.43-37.06-3.87-23.27-23.79-45.5-48.6-68.16-73-16.31-17.56-32.4-35.34-49-52.62a52.49,52.49,0,0,1-14.61-31.54c-3-26.77,2.13-51.56,20.78-72,21.69-23.8,48.49-35.17,80.95-30.9,11.06,1.45,20.93,6.42,30.33,12.25,4,2.45,7.84,5,11.73,7.58,7.32,4.81,10.28,4.72,17.74-.1,6.14-4,12.26-8,18.68-11.5,9.89-5.37,20.37-9.07,31.84-9Q355.08,226,343.49,249.77c-5.6,11.43-11.3,22.82-17.44,35.21l-18.12-18.85v52.38l49.22-16.8L331.87,288.9l41.67-46.72,18,21.3Z" transform="translate(-148.24 -151.29)"/><path class="cls-2" d="M435.21,230l-43.68,33.45-18-21.3L331.87,288.9l25.27,12.81-49.22,16.8V266.13L326,285c6.14-12.4,11.84-23.78,17.44-35.21q11.64-23.74,23.18-47.52L374,189l16.47,15.78,18,18.34,4.63-10.22c5.69-10.88,11.42-21.73,17-32.64,4.79-9.3,9.43-18.68,14.62-29l28.91,48.19c-11.46,8.93-22.61,17.59-33.72,26.29C438.29,227.08,436.79,228.61,435.21,230Z" transform="translate(-148.24 -151.29)"/><path class="cls-3" d="M381.39,631.89V547.18c1.24-.11,2.5-0.32,3.76-0.32,11.67,0,23.33-.07,35,0,24,0.15,36.29,10.42,39.34,34.08a74.87,74.87,0,0,1-.93,24.3c-3.14,15.19-13,25.21-28.64,26.38C413.91,632.83,397.74,631.89,381.39,631.89Zm26.45-19.09c4.59,0,9.05.3,13.46-.07,6-.51,10.06-4,10.78-10a104,104,0,0,0,.83-20.29c-0.87-11.38-6.05-15.8-17.42-16.22-2.45-.09-4.91,0-7.65,0V612.8Z" transform="translate(-148.24 -151.29)"/><path class="cls-4" d="M343,547.09v18H298.94v13.71h40.89v17.47H299v17h45.36v19.39H272.52V547.09H343Z" transform="translate(-148.24 -151.29)"/><path class="cls-5" d="M214.12,632.49a10.56,10.56,0,0,1-.79-1.54c-3.74-12.49-3.74-12.49-16.51-12.49-4.5,0-9,.17-13.49-0.06-2.78-.15-4.24.63-5,3.45-0.94,3.65-1.33,8.75-3.81,10.36-2.83,1.84-7.7.56-11.69,0.58-4.65,0-9.31,0-14.61,0,3.9-10.46,7.63-20.53,11.4-30.59,6.43-17.12,13-34.19,19.23-51.37,1.19-3.28,2.79-4.2,6.11-4.07,7,0.27,14,.2,21,0,2.57-.06,3.77.76,4.67,3.21q15.11,40.66,30.43,81.24a4.15,4.15,0,0,1-.05,1.26h-26.9Zm-10-32.62-9.53-30.79-9.34,30.79h18.87Z" transform="translate(-148.24 -151.29)"/><path class="cls-6" d="M413.11,212.93l-4.63,10.22-18-18.34Z" transform="translate(-148.24 -151.29)"/></svg>