<?xml version="1.0" encoding="UTF-8" standalone="no"?>
<!-- Created with Inkscape (http://www.inkscape.org/) -->

<svg
   xmlns:dc="http://purl.org/dc/elements/1.1/"
   xmlns:cc="http://creativecommons.org/ns#"
   xmlns:rdf="http://www.w3.org/1999/02/22-rdf-syntax-ns#"
   xmlns:svg="http://www.w3.org/2000/svg"
   xmlns="http://www.w3.org/2000/svg"
   xmlns:sodipodi="http://sodipodi.sourceforge.net/DTD/sodipodi-0.dtd"
   xmlns:inkscape="http://www.inkscape.org/namespaces/inkscape"
   width="59.412228mm"
   height="103.39679mm"
   viewBox="0 0 59.412228 103.39679"
   version="1.1"
   id="svg8"
   inkscape:version="0.92.1 r15371"
   sodipodi:docname="reiwa.svg">
  <defs
     id="defs2" />
  <sodipodi:namedview
     id="base"
     pagecolor="#ffffff"
     bordercolor="#666666"
     borderopacity="1.0"
     inkscape:pageopacity="0.0"
     inkscape:pageshadow="2"
     inkscape:zoom="0.98994949"
     inkscape:cx="185.52025"
     inkscape:cy="203.64387"
     inkscape:document-units="mm"
     inkscape:current-layer="layer1"
     showgrid="false"
     inkscape:window-width="1920"
     inkscape:window-height="1027"
     inkscape:window-x="-8"
     inkscape:window-y="-8"
     inkscape:window-maximized="1"
     fit-margin-top="0"
     fit-margin-left="0"
     fit-margin-right="0"
     fit-margin-bottom="0" />
  <metadata
     id="metadata5">
    <rdf:RDF>
      <cc:Work
         rdf:about="">
        <dc:format>image/svg+xml</dc:format>
        <dc:type
           rdf:resource="http://purl.org/dc/dcmitype/StillImage" />
        <dc:title />
      </cc:Work>
    </rdf:RDF>
  </metadata>
  <g
     inkscape:label="レイヤー 1"
     inkscape:groupmode="layer"
     id="layer1"
     transform="translate(-126.5608,-25.607351)">
    <path
       style="fill:#ffffff;stroke-width:0.26458335"
       d="m 147.43547,128.04902 c -0.44528,-0.72047 -0.60416,-1.38976 -0.61689,-2.59866 -0.0124,-1.18103 -0.14433,-1.75543 -0.48018,-2.09121 -0.47261,-0.47253 -0.58314,-1.40501 -0.29431,-2.48308 0.11852,-0.44239 0.29352,-0.56082 0.65784,-0.44519 0.4706,0.14936 0.49476,-0.0391 0.46545,-3.6306 -0.017,-2.08348 -0.10631,-4.56205 -0.19844,-5.50794 l -0.16751,-1.71979 -0.84078,1.45521 c -1.2404,2.14686 -3.08012,4.3491 -4.37147,5.2329 -0.94889,0.64941 -5.74483,2.17543 -6.8369,2.17543 -0.57529,0 -0.15132,-0.61583 1.7501,-2.54209 1.10224,-1.11665 2.2631,-2.41509 2.57968,-2.88543 0.31659,-0.47034 1.06514,-1.55492 1.66346,-2.41018 1.73461,-2.4795 2.50248,-4.17472 2.31518,-5.11121 -0.089,-0.44518 -0.26812,-0.80942 -0.39798,-0.80942 -0.26227,0 -4.61419,2.45266 -5.27949,2.97542 -0.2323,0.18253 -0.61564,0.70592 -0.85186,1.16308 -0.80116,1.5505 -2.90944,1.6687 -4.39441,0.24637 -0.37475,-0.35895 -1.10757,-0.83066 -1.62848,-1.04826 -1.13948,-0.47598 -1.39622,-0.77363 -1.83135,-2.12316 -0.18364,-0.56953 -0.73494,-1.56092 -1.22511,-2.20308 -0.49017,-0.64216 -0.89122,-1.27022 -0.89122,-1.39567 0,-0.50291 2.38731,-0.58063 4.19881,-0.1367 1.77564,0.43514 1.85407,0.43269 2.87899,-0.0902 1.55261,-0.79208 8.9254,-3.709599 10.91387,-4.318779 0.94588,-0.28978 1.81407,-0.61596 1.92929,-0.72485 0.11523,-0.10889 0.0153,-0.76985 -0.22194,-1.46881 -0.23731,-0.69895 -0.37332,-1.57496 -0.30226,-1.94668 0.0711,-0.37173 0.0202,-0.96266 -0.11312,-1.3132 -0.21416,-0.56329 -0.35248,-0.61667 -1.19058,-0.45944 -0.71395,0.13394 -1.0748,0.0634 -1.46037,-0.28556 -0.70433,-0.63741 -3.2074,-0.57934 -5.89466,0.13675 -1.15184,0.30694 -2.16107,0.49125 -2.24273,0.40959 -0.23763,-0.23762 2.71612,-2.70719 6.17235,-5.160581 2.9705,-2.108595 3.18741,-2.321566 3.12947,-3.072713 l -0.0623,-0.807085 1.96835,-0.178368 c 1.84793,-0.167455 2.06216,-0.129609 3.50183,0.618638 2.4593,1.278173 3.51787,2.448351 3.51787,3.888753 0,0.958392 -0.75658,1.948693 -1.48878,1.948693 -0.23675,0 -1.30719,0.483971 -2.37876,1.075493 -1.07157,0.59152 -2.06849,1.00121 -2.21538,0.91043 -0.1469,-0.0908 -0.26708,-0.039 -0.26708,0.11513 0,0.15411 0.1744,0.2802 0.38756,0.2802 0.21317,0 0.51594,0.23986 0.67284,0.53303 0.15689,0.29316 0.76094,0.8333 1.34231,1.20031 0.58137,0.367 1.18964,0.95831 1.35171,1.31401 0.23019,0.5052 0.43137,0.61242 0.91935,0.48995 0.92606,-0.23243 2.99914,0.1401 2.99914,0.53894 0,0.18681 0.2301,0.54789 0.51133,0.8024 0.28123,0.25451 0.4517,0.6181 0.37884,0.808 -0.0729,0.18988 -0.005,0.42385 0.15013,0.51992 0.37833,0.23382 0.36053,1.54719 -0.0262,1.93393 -0.34316,0.343159 -0.36831,0.330259 1.6687,0.855699 1.59273,0.41084 3.98146,2.11433 4.5248,3.22681 0.47676,0.97615 1.21691,4.27871 1.32249,5.90096 0.0688,1.05685 0.0704,1.05825 1.12721,1.00526 2.10428,-0.10551 4.9126,-0.69406 5.4227,-1.13646 0.58456,-0.50699 1.16032,-3.66462 0.9029,-4.95174 -0.0825,-0.41274 -0.17036,-1.46198 -0.19514,-2.33166 l -0.0451,-1.58124 -1.14945,0.0526 c -2.04432,0.0935 -4.06284,0.63776 -4.68953,1.26444 -0.74451,0.74451 -1.73237,0.62168 -2.93875,-0.36542 -0.76718,-0.62773 -2.20248,-2.482549 -2.20248,-2.846249 0,-0.0833 0.75665,-0.0703 1.68143,0.0287 1.22879,0.13159 2.44326,0.033 4.51135,-0.36605 1.55646,-0.30037 3.18106,-0.54612 3.61024,-0.54612 0.5406,0 0.78032,-0.13073 0.78032,-0.42556 0,-0.31809 0.16173,-0.38496 0.64048,-0.2648 0.551,0.13829 0.66532,0.0477 0.81826,-0.64864 0.18916,-0.86124 0.93325,-1.30683 2.18228,-1.30683 0.75293,0 2.25857,0.92529 3.82783,2.3524 0.5426,0.49345 1.22789,1.06622 1.52286,1.27283 0.76509,0.53589 1.32704,1.748789 1.32704,2.864269 0,0.95014 -0.73106,1.94633 -1.93635,2.63862 -0.34268,0.19683 -0.56563,0.97576 -0.8706,3.04162 -0.22548,1.52736 -0.45531,2.82238 -0.51074,2.87781 -0.0554,0.0554 0.073,0.43697 0.28553,0.84785 1.17516,2.2725 -0.1338,4.2925 -2.96363,4.57352 -0.84966,0.0844 -3.01299,0.2301 -4.8074,0.32382 -2.80865,0.14668 -3.41604,0.10402 -4.36563,-0.30665 -0.60668,-0.26238 -1.30894,-0.64951 -1.56056,-0.86029 -0.40567,-0.33983 -0.47593,-0.32671 -0.62012,0.11579 -0.5157,1.58266 -0.81333,2.06625 -1.54713,2.51371 -0.90634,0.55269 -1.74087,0.65287 -1.74087,0.20898 0,-0.15944 -0.23914,-0.62572 -0.53142,-1.03619 -0.29228,-0.41047 -0.58223,-1.32181 -0.64434,-2.02522 -0.0621,-0.7034 -0.40704,-2.5101 -0.76651,-4.01489 -0.49393,-2.06765 -0.85793,-2.99027 -1.49015,-3.77698 -1.02469,-1.27509 -1.70183,-2.79323 -2.14006,-4.79798 -0.18291,-0.83674 -0.471,-1.52135 -0.6402,-1.52135 -0.57662,0 -2.91481,0.87718 -3.10983,1.16666 -0.10692,0.1587 -0.19049,0.70526 -0.18573,1.21459 0.008,0.83233 0.15719,1.01975 1.47635,1.85208 2.27815,1.43741 3.36058,3.78933 2.35481,5.11661 -0.54843,0.72374 -2.24744,1.03813 -2.98803,0.5529 l -0.59531,-0.39004 v 8.04599 8.04599 l -0.8599,1.3374 c -0.47294,0.73557 -0.99901,1.34434 -1.16904,1.35282 -0.17003,0.008 -0.57904,-0.42127 -0.90889,-0.95499 z m 4.9729,-50.160322 c -0.72186,-0.533712 -2.60986,-3.951555 -2.75457,-4.986589 -0.12774,-0.913648 -0.088,-0.969711 0.99341,-1.402418 l 1.12647,-0.450726 -0.1634,-3.624665 c -0.16387,-3.635084 -0.49424,-5.69436 -1.01403,-6.320668 -0.34215,-0.412263 -1.04762,-0.09636 -2.20732,0.98843 -0.71475,0.668571 -0.90525,0.721696 -1.91395,0.533729 -0.90461,-0.168572 -1.45522,-0.550432 -2.86104,-1.984201 -1.56329,-1.59436 -1.72326,-1.855544 -1.56841,-2.560606 0.11879,-0.54081 0.0263,-1.008226 -0.29725,-1.501996 -0.25833,-0.394269 -0.47722,-0.775963 -0.4864,-0.848207 -0.0353,-0.277434 2.15765,0.07341 3.39314,0.542859 1.29314,0.49135 1.29711,0.491167 3.04353,-0.139171 0.96179,-0.347139 2.60289,-0.988219 3.64689,-1.424623 1.04401,-0.436403 2.63252,-0.9995 3.53003,-1.251331 0.89752,-0.25183 1.69774,-0.629597 1.77828,-0.839483 0.35488,-0.924803 1.47647,-1.686568 2.69587,-1.830988 1.37983,-0.16342 2.32503,0.201581 4.06661,1.570366 0.55242,0.434165 1.05151,0.74227 1.10911,0.684675 0.0576,-0.05759 -0.7355,-1.530464 -1.76243,-3.273041 -1.02692,-1.742578 -2.70719,-4.597075 -3.73392,-6.343325 -3.54683,-6.032411 -5.06589,-8.069792 -6.01681,-8.069792 -0.54529,0 -0.78373,0.329397 -3.26057,4.504239 -1.53067,2.580027 -1.74371,3.16158 -1.16425,3.178117 4.15129,0.118475 6.83547,0.815167 7.96879,2.068337 0.59238,0.655013 0.86967,2.660175 0.47093,3.405246 -0.48565,0.907441 -2.05947,1.480126 -3.62389,1.318664 -2.46016,-0.253912 -4.15736,-1.579742 -4.99144,-3.899256 -0.79901,-2.221976 -0.93951,-2.168693 -2.96151,1.123143 -2.62245,4.26935 -4.6517,6.916403 -6.07609,7.925934 -0.6835,0.484431 -1.7524,1.357035 -2.37532,1.939118 -2.37911,2.223122 -6.3072,4.880491 -6.67322,4.514464 -0.0773,-0.07734 -0.27932,0.04908 -0.44885,0.280918 -0.16953,0.231844 -0.5329,0.378267 -0.80749,0.325388 -0.43182,-0.08316 -0.37148,-0.221073 0.4467,-1.020959 1.46069,-1.428043 5.89039,-6.975014 8.48824,-10.629188 2.93707,-4.131319 4.69088,-6.99883 7.78423,-12.727335 2.43057,-4.501116 3.37524,-6.892431 2.99987,-7.593808 -0.1469,-0.274487 -0.26709,-0.789581 -0.26709,-1.144654 0,-0.355073 -0.16697,-1.118825 -0.37104,-1.697227 -0.48035,-1.361455 -0.23658,-1.805678 0.74535,-1.358277 0.56321,0.256615 0.83518,0.259611 1.2292,0.01354 0.89478,-0.558796 1.40414,-0.345502 3.22825,1.35182 2.12371,1.976106 2.50052,2.877597 1.78741,4.276329 -0.56452,1.107257 -0.55078,1.130131 1.89952,3.163809 1.6913,1.403733 4.93181,5.048028 8.7704,9.863245 2.37489,2.979123 5.52638,6.160213 6.1057,6.163041 0.13406,5.29e-4 0.43172,0.164783 0.66146,0.364728 0.22974,0.199949 1.66786,0.891353 3.19583,1.536452 4.24276,1.791269 9.01057,5.145857 10.03543,7.060834 0.26368,0.492694 0.23146,0.564174 -0.25437,0.564174 -0.4359,0 -0.51995,0.11453 -0.38835,0.529167 0.1146,0.361066 0.0476,0.529166 -0.21107,0.529166 -0.20846,0 -0.66348,0.223756 -1.01115,0.497234 -0.82131,0.646036 -5.52452,0.902899 -7.50903,0.410102 -0.7276,-0.180679 -1.86727,-0.403331 -2.53259,-0.494779 -1.4732,-0.202493 -3.79339,-2.043845 -6.16697,-4.89422 -1.48279,-1.780651 -2.17839,-2.334614 -1.84694,-1.470869 0.25024,0.652114 -0.14423,1.721398 -0.89005,2.412593 -0.57572,0.533558 -0.89712,1.436317 -1.81609,5.10105 -0.61411,2.449017 -1.29726,4.802182 -1.51811,5.229251 -0.22084,0.427072 -0.66211,1.583053 -0.98058,2.568845 -0.61998,1.919047 -0.6544,1.95212 -2.19621,2.110309 -1.38669,0.142272 -2.31333,-0.778931 -2.59857,-2.583305 -0.1139,-0.720555 -0.38942,-1.492427 -0.61227,-1.71527 -0.36383,-0.363834 -0.40516,-0.158414 -0.40516,2.013633 0,4.446624 -0.73178,7.710659 -1.73537,7.740446 -0.15409,0.0046 -0.48145,-0.140515 -0.72748,-0.322416 z m 4.45235,-11.943871 c 0.45568,-1.090578 1.45008,-6.483654 1.45008,-7.86439 0,-0.548045 -0.1156,-1.06789 -0.25689,-1.155213 -0.28462,-0.175903 -3.87374,1.247113 -4.66503,1.849596 -0.48057,0.3659 -0.46023,0.419285 0.47549,1.248323 0.53763,0.476342 1.15843,1.316847 1.37954,1.867786 0.37669,0.938604 0.36928,1.034444 -0.11763,1.521354 -0.51986,0.519856 -0.70064,1.960055 -0.31716,2.526631 0.2168,0.320315 1.13716,0.882951 1.46466,0.895384 0.11657,0.0044 0.38069,-0.395835 0.58694,-0.889471 z"
       id="path4645"
       inkscape:connector-curvature="0"
       inkscape:export-xdpi="89.507896"
       inkscape:export-ydpi="89.507896" />
  </g>
</svg>
